<?xml version="1.0" encoding="UTF-8" standalone="no"?>
<!-- Created with Inkscape (http://www.inkscape.org/) -->

<svg
   version="1.1"
   id="svg1"
   width="768"
   height="768"
   viewBox="0 0 768 768"
   sodipodi:docname="Figure_1_coarse.png"
   inkscape:export-batch-path="/Users/kaijian/summer_research/pacman"
   inkscape:export-batch-name="Figure_1_coarse"
   xmlns:inkscape="http://www.inkscape.org/namespaces/inkscape"
   xmlns:sodipodi="http://sodipodi.sourceforge.net/DTD/sodipodi-0.dtd"
   xmlns="http://www.w3.org/2000/svg"
   xmlns:svg="http://www.w3.org/2000/svg">
  <defs
     id="defs1" />
  <sodipodi:namedview
     id="namedview1"
     pagecolor="#ffffff"
     bordercolor="#000000"
     borderopacity="0.25"
     inkscape:showpageshadow="2"
     inkscape:pageopacity="0.0"
     inkscape:pagecheckerboard="0"
     inkscape:deskcolor="#d1d1d1"
     showgrid="false"
     inkscape:export-bgcolor="#ffffff0b" />
  <g
     inkscape:groupmode="layer"
     inkscape:label="Image"
     id="g1"
     transform="translate(-2.4473739,-4.8947477)">
    <path
       style="fill:#000000"
       d="M 2.4473739,388.89475 V 4.8947477 h 383.9999961 384 v 384.0000023 384 h -384 H 2.4473739 Z M 247.96737,689.6153 c -15.708,-0.14801 -41.412,-0.14801 -57.12,0 -15.708,0.14802 -2.856,0.26913 28.56,0.26913 31.416,0 44.268,-0.12111 28.56,-0.26913 z m 118.08,0 c -15.708,-0.14801 -41.412,-0.14801 -57.12,0 -15.708,0.14802 -2.856,0.26913 28.56,0.26913 31.416,0 44.268,-0.12111 28.56,-0.26913 z m 118.08,0 c -15.708,-0.14801 -41.412,-0.14801 -57.12,0 -15.708,0.14802 -2.856,0.26913 28.56,0.26913 31.416,0 44.268,-0.12111 28.56,-0.26913 z m 118.08,0 c -15.708,-0.14801 -41.412,-0.14801 -57.12,0 -15.708,0.14802 -2.856,0.26913 28.56,0.26913 31.416,0 44.268,-0.12111 28.56,-0.26913 z m 91.19997,-444.55825 c -0.13536,-81.13726 -0.2461,-14.4663 -0.2461,148.1577 10e-6,162.624 0.11076,229.00904 0.24611,147.5223 0.13536,-81.48673 0.13535,-214.54273 -10e-6,-295.68 z m -3.59997,148.1577 V 99.934748 h -293.28 -293.28 v 293.280002 293.28 h 293.28 293.28 z M 414.70814,515.9345 c -0.88237,-1.39885 -1.87021,-1.48372 -7.84909,-0.67439 -3.76182,0.50922 -7.78907,0.57465 -8.94943,0.1454 -1.3113,-0.48508 -2.62028,-0.35674 -3.45873,0.3391 -1.0326,0.85699 -1.89389,0.82792 -3.67244,-0.12393 -1.87159,-1.00165 -3.72222,-1.01784 -9.51559,-0.0833 -7.27246,1.17317 -9.09481,0.86631 -12.92192,-2.17591 -1.72917,-1.37454 -13.42984,-5.93471 -21.30593,-8.30367 -4.72226,-1.42036 -7.42134,-2.97437 -10.81686,-6.22785 -2.48847,-2.38438 -5.34782,-4.33523 -6.3541,-4.33523 -1.00629,0 -3.81044,-1.512 -6.23145,-3.36 -2.42102,-1.848 -5.03379,-3.36 -5.80616,-3.36 -7.25353,0 -16.81907,-9.56554 -16.81907,-16.81907 0,-0.77237 -1.512,-3.38514 -3.36,-5.80616 -1.848,-2.42101 -3.36,-5.22516 -3.36,-6.23145 0,-1.00628 -1.94023,-3.85454 -4.31163,-6.32947 -3.39361,-3.54177 -4.83845,-6.15144 -6.78596,-12.25685 -1.36088,-4.26635 -3.20999,-9.701 -4.10912,-12.077 -1.68017,-4.43992 -2.28036,-5.49462 -9.41705,-16.54849 -5.10248,-7.90313 -5.11057,-7.18969 0.15481,-13.65415 l 4.33104,-5.31736 -4.33104,-5.31736 c -5.26538,-6.46446 -5.25729,-5.75102 -0.15481,-13.65415 7.13669,-11.05387 7.73688,-12.10857 9.41705,-16.54849 0.89913,-2.376 2.74824,-7.81065 4.10912,-12.077 1.94751,-6.10541 3.39235,-8.71508 6.78596,-12.25685 2.3714,-2.47493 4.31163,-5.32319 4.31163,-6.32947 0,-1.00629 1.512,-3.81044 3.36,-6.23145 1.848,-2.42102 3.36,-5.03379 3.36,-5.80616 0,-7.25353 9.56554,-16.81907 16.81907,-16.81907 0.77237,0 3.38514,-1.512 5.80616,-3.36 2.42101,-1.848 5.22516,-3.36 6.23145,-3.36 1.00628,0 3.87406,-1.95893 6.37283,-4.35318 3.23248,-3.09725 6.07624,-4.79357 9.85686,-5.87964 6.15428,-1.76796 17.1358,-5.82599 19.23363,-7.10745 7.76243,-4.74168 8.47264,-4.90628 15.95866,-3.69865 5.77016,0.93083 7.6223,0.91385 9.49242,-0.087 1.77855,-0.95185 2.63984,-0.98092 3.67244,-0.12393 0.83845,0.69584 2.14743,0.82418 3.45873,0.3391 1.16036,-0.42925 5.16714,-0.36659 8.90396,0.13925 6.12102,0.82857 6.92264,0.74404 8.09052,-0.85313 1.30833,-1.78925 5.59419,-0.30287 10.76648,3.73393 1.55111,1.2106 7.3851,3.41553 17.97379,6.79312 6.10541,1.94751 8.71508,3.39235 12.25685,6.78596 2.47493,2.3714 5.32319,4.31163 6.32947,4.31163 1.00629,0 3.81044,1.512 6.23145,3.36 2.42102,1.848 5.03379,3.36 5.80616,3.36 7.25353,0 16.81907,9.56554 16.81907,16.81907 0,0.77237 1.512,3.38514 3.36,5.80616 1.848,2.42101 3.36,5.24715 3.36,6.2803 0,1.03316 1.404,3.28344 3.12,5.00063 3.85389,3.85654 6.14155,8.49156 11.39982,23.09704 l 4.10538,11.4032 -2.22818,1.80428 c -25.42888,20.59105 -80.63305,-8.77214 -95.71833,-50.91273 -1.43686,-4.01387 -2.73822,-7.46279 -2.89191,-7.66427 -0.15368,-0.20148 -3.95094,0.55452 -8.43836,1.68 -9.84076,2.46813 -13.98842,2.63898 -13.98842,0.57619 0,-2.61004 -2.3829,-2.52355 -14.50084,0.52629 -14.63783,3.68406 -14.0084,2.98506 -10.89695,12.10131 9.10534,26.6778 29.61874,51.44009 53.28364,64.32014 5.54547,3.01822 5.78796,4.67384 1.10575,7.54954 -27.48196,16.8788 -45.11868,38.01308 -54.38939,65.17538 -3.11145,9.11625 -3.74088,8.41725 10.89695,12.10131 12.11794,3.04984 14.50084,3.13633 14.50084,0.52629 0,-2.06279 4.14766,-1.89194 13.98842,0.57619 4.48742,1.12548 8.28468,1.88148 8.43836,1.68 0.15369,-0.20148 1.45505,-3.6504 2.89191,-7.66427 15.08528,-42.14059 70.28945,-71.50378 95.71833,-50.91273 l 2.22818,1.80428 -4.10538,11.4032 c -5.25827,14.60548 -7.54593,19.2405 -11.39982,23.09704 -1.716,1.71719 -3.12,3.96747 -3.12,5.00063 0,1.03315 -1.512,3.85929 -3.36,6.2803 -1.848,2.42102 -3.36,5.03379 -3.36,5.80616 0,7.25353 -9.56554,16.81907 -16.81907,16.81907 -0.77237,0 -3.38514,1.512 -5.80616,3.36 -2.42101,1.848 -5.22516,3.36 -6.23145,3.36 -1.00628,0 -3.86563,1.95085 -6.3541,4.33523 -3.39552,3.25348 -6.0946,4.80749 -10.81686,6.22785 -9.29421,2.79551 -19.18971,6.89692 -23.79328,9.86165 -4.75662,3.0633 -5.22096,3.13517 -6.55831,1.01502 z m -314.58132,25.84025 c -0.148018,-15.708 -0.269124,-2.856 -0.269124,28.56 0,31.416 0.121106,44.268 0.269124,28.56 0.14802,-15.708 0.14802,-41.412 0,-57.12 z m 0,-118.08 c -0.148018,-15.708 -0.269124,-2.856 -0.269124,28.56 0,31.416 0.121106,44.268 0.269124,28.56 0.14802,-15.708 0.14802,-41.412 0,-57.12 z m 0,-118.08 c -0.148018,-15.708 -0.269124,-2.856 -0.269124,28.56 0,31.416 0.121106,44.268 0.269124,28.56 0.14802,-15.708 0.14802,-41.412 0,-57.12 z m 0,-118.08 c -0.148018,-15.708 -0.269124,-2.856 -0.269124,28.56 0,31.416 0.121106,44.268 0.269124,28.56 0.14802,-15.708 0.14802,-41.412 0,-57.12 z M 544.68507,96.334775 c -81.13727,-0.135361 -214.19327,-0.135366 -295.68,-10e-6 -81.48674,0.135357 -15.1017,0.246107 147.5223,0.246113 162.624,5e-6 229.29496,-0.110741 148.1577,-0.246103 z"
       id="path1" />
  </g>
</svg>
